<svg xmlns="http://www.w3.org/2000/svg" width="160" height="160" viewBox="0 0 160 160"><defs><style>.a{fill:#efc003;}.b{fill:#072c6b;}</style></defs><g transform="translate(-1082 -622)"><circle class="a" cx="80" cy="80" r="80" transform="translate(1082 622)"/><path class="b" d="M13.482,29.215a8.988,8.988,0,1,0-8.988-8.988A9,9,0,0,0,13.482,29.215Zm62.918,0a8.988,8.988,0,1,0-8.988-8.988A9,9,0,0,0,76.4,29.215Zm4.494,4.494H71.906a8.962,8.962,0,0,0-6.334,2.612A20.543,20.543,0,0,1,76.12,51.686h9.269a4.489,4.489,0,0,0,4.494-4.494V42.7A9,9,0,0,0,80.895,33.709Zm-35.953,0A15.729,15.729,0,1,0,29.212,17.979,15.722,15.722,0,0,0,44.941,33.709ZM55.727,38.2H54.562a21.717,21.717,0,0,1-19.241,0H34.155A16.183,16.183,0,0,0,17.977,54.382v4.045a6.743,6.743,0,0,0,6.741,6.741H65.165a6.743,6.743,0,0,0,6.741-6.741V54.382A16.183,16.183,0,0,0,55.727,38.2ZM24.31,36.321a8.962,8.962,0,0,0-6.334-2.612H8.988A9,9,0,0,0,0,42.7v4.494a4.489,4.489,0,0,0,4.494,4.494h9.255A20.6,20.6,0,0,1,24.31,36.321Z" transform="translate(1117.059 668.291)"/></g></svg>