<svg xmlns="http://www.w3.org/2000/svg" width="160" height="160" viewBox="0 0 160 160"><defs><style>.a{fill:#efc003;}.b{fill:#072c6b;}.c{fill:#02348a;}.d{fill:#0841a2;}.e{fill:#084cbf;}</style></defs><g transform="translate(-247 -622)"><circle class="a" cx="80" cy="80" r="80" transform="translate(247 622)"/><g transform="translate(282 657)"><path class="b" d="M52.072,53.886H5.038a2.788,2.788,0,0,1,0-5.575H52.072A.927.927,0,0,0,52.7,46.7L27.975,24.326A6.5,6.5,0,0,1,32.342,13H64.509a2.788,2.788,0,0,1,0,5.575H32.342a.927.927,0,0,0-.624,1.613L56.439,42.561a6.5,6.5,0,0,1-4.367,11.326Z" transform="translate(6.113 35.32)"/><path class="b" d="M46.363,18.5H38.052L52.7,31.751a.927.927,0,0,1-.624,1.613H5.038a2.79,2.79,0,0,0,0,5.579H52.072a6.5,6.5,0,0,0,4.364-11.326Z" transform="translate(6.113 50.263)"/><path class="b" d="M11.151,44.736a2.786,2.786,0,0,1-1.881-.729C8.895,43.661,0,35.439,0,26.846,0,20.315,5,15,11.151,15S22.3,20.315,22.3,26.85c0,8.594-8.895,16.812-9.27,17.157A2.786,2.786,0,0,1,11.151,44.736Z" transform="translate(0 40.754)"/><path class="c" d="M11.151,15C5,15,0,20.315,0,26.85c0,8.594,8.895,16.812,9.27,17.157a2.786,2.786,0,0,0,1.881.729Z" transform="translate(0 40.754)"/><path class="b" d="M32.585,48.32a2.772,2.772,0,0,1-1.81-.669C30.087,47.064,14,33.137,14,18.815a18.586,18.586,0,1,1,37.169,0c0,14.321-16.087,28.249-16.775,28.836A2.772,2.772,0,0,1,32.585,48.32Z" transform="translate(38.037 0)"/><path class="d" d="M24.434,17.868a7.434,7.434,0,1,1,7.434-7.434A7.441,7.441,0,0,1,24.434,17.868Z" transform="translate(46.188 8.151)"/><path class="c" d="M32.585,0A18.723,18.723,0,0,0,14,18.815c0,14.321,16.087,28.249,16.775,28.836a2.772,2.772,0,0,0,1.81.669v-22.3a7.434,7.434,0,1,1,0-14.868Z" transform="translate(38.037)"/><path class="e" d="M24.434,3a7.434,7.434,0,1,0,0,14.868Z" transform="translate(46.188 8.151)"/></g></g></svg>