<svg xmlns="http://www.w3.org/2000/svg" width="160" height="160" viewBox="0 0 160 160"><defs><style>.a{fill:#efc003;}.b{fill:#072c6b;}</style></defs><g transform="translate(-525 -622)"><circle class="a" cx="80" cy="80" r="80" transform="translate(525 622)"/><g transform="translate(568 664)"><g transform="translate(0 21.875)"><path class="b" d="M7.813,161.833v-9.375a1.563,1.563,0,0,0,0-3.125A7.821,7.821,0,0,0,0,157.146v3.125a4.693,4.693,0,0,0,4.688,4.688H7.813a1.562,1.562,0,1,0,0-3.125Z" transform="translate(0 -149.333)"/></g><g transform="translate(65.625 21.875)"><path class="b" d="M449.563,149.333a1.563,1.563,0,0,0,0,3.125v9.375a1.562,1.562,0,1,0,0,3.125h3.125a4.693,4.693,0,0,0,4.688-4.688v-3.125A7.821,7.821,0,0,0,449.563,149.333Z" transform="translate(-448 -149.333)"/></g><g transform="translate(12.5 65.625)"><path class="b" d="M99.395,448a1.563,1.563,0,0,0-1.563,1.563H88.457a1.563,1.563,0,1,0-3.125,0v3.125a4.693,4.693,0,0,0,4.688,4.688h6.25a4.693,4.693,0,0,0,4.688-4.688v-3.125A1.563,1.563,0,0,0,99.395,448Z" transform="translate(-85.332 -448)"/></g><g transform="translate(46.875 65.625)"><path class="b" d="M334.063,448a1.563,1.563,0,0,0-1.563,1.563h-9.375a1.563,1.563,0,1,0-3.125,0v3.125a4.693,4.693,0,0,0,4.688,4.688h6.25a4.693,4.693,0,0,0,4.688-4.688v-3.125A1.563,1.563,0,0,0,334.063,448Z" transform="translate(-320 -448)"/></g><g transform="translate(6.25)"><path class="b" d="M97.355,0H50.48a7.821,7.821,0,0,0-7.813,7.813V60.938A7.821,7.821,0,0,0,50.48,68.75H97.355a7.821,7.821,0,0,0,7.812-7.813V7.813A7.821,7.821,0,0,0,97.355,0ZM56.73,6.25H91.1a4.688,4.688,0,1,1,0,9.375H56.73a4.688,4.688,0,0,1,0-9.375Zm0,53.125a4.688,4.688,0,1,1,4.688-4.688A4.693,4.693,0,0,1,56.73,59.375Zm34.375,0a4.688,4.688,0,1,1,4.688-4.688A4.693,4.693,0,0,1,91.1,59.375Zm7.813-20.313A4.693,4.693,0,0,1,94.23,43.75H53.6a4.693,4.693,0,0,1-4.688-4.688V23.438A4.693,4.693,0,0,1,53.6,18.75H94.23a4.693,4.693,0,0,1,4.688,4.688V39.063Z" transform="translate(-42.667)"/></g></g></g></svg>