<svg id="Layer_1" data-name="Layer 1" xmlns="http://www.w3.org/2000/svg" viewBox="0 0 38.5 42"><defs><style>.cls-1{fill:#c9cacc;}.cls-2{fill:none;stroke:#fff;}</style></defs><rect class="cls-1" x="4.5" y="4" width="34" height="34" rx="6"/><path class="cls-1" d="M28.5,42h-17a4,4,0,0,1-4-4h0a4,4,0,0,1,4-4h17a4,4,0,0,1,4,4h0A4,4,0,0,1,28.5,42Z"/><path class="cls-2" d="M28.5,41.5h-17A3.5,3.5,0,0,1,8,38H8a3.5,3.5,0,0,1,3.5-3.5h17A3.5,3.5,0,0,1,32,38h0A3.5,3.5,0,0,1,28.5,41.5Z"/><path class="cls-1" d="M28.5,8h-17a4,4,0,0,1-4-4h0a4,4,0,0,1,4-4h17a4,4,0,0,1,4,4h0A4,4,0,0,1,28.5,8Z"/><path class="cls-2" d="M28.5,7.5h-17A3.5,3.5,0,0,1,8,4H8A3.5,3.5,0,0,1,11.5.5h17A3.5,3.5,0,0,1,32,4h0A3.5,3.5,0,0,1,28.5,7.5Z"/><path class="cls-1" d="M0,33V9A4,4,0,0,1,4,5H4A4,4,0,0,1,8,9V33a4,4,0,0,1-4,4H4A4,4,0,0,1,0,33Z"/><path class="cls-2" d="M.5,33V9A3.5,3.5,0,0,1,4,5.5H4A3.5,3.5,0,0,1,7.5,9V33A3.5,3.5,0,0,1,4,36.5H4A3.5,3.5,0,0,1,.5,33Z"/></svg>